{"title":"Insidious 2011 R5 LiNE XViD DTRG - SAFCuk009","uid":6339082,"size":1407089786,"categoryP":"video","categoryS":"movies","magnet":"?xt=urn:btih:05478b69e409cdf98202539394320119a0413ccc&amp;dn=Insidious+2011+R5+LiNE+XViD+DTRG+-+SAFCuk009&amp;tr=udp%3A%2F%2Ftracker.openbittorrent.com%3A80&amp;tr=udp%3A%2F%2Fopen.demonii.com%3A1337&amp;tr=udp%3A%2F%2Ftracker.coppersurfer.tk%3A6969&amp;tr=udp%3A%2F%2Fexodus.desync.com%3A6969","seeders":0,"leechers":1,"uploader":"SAFCukO09","files":3,"time":1303580264,"description":"Format/Info                      : Audio Video Interleave\nFile size                        : 1.31 GiB\nDuration                         : 1h 35mn\nOverall bit rate                 : 1 957 Kbps\nWriting application              : VirtualDubMod 1.5.10.3 | www.virtualdub-fr.org || (build 2550/release)\nWriting library                  : VirtualDubMod build 2550/release\n\nVideo\nID                               : 0\nFormat                           : MPEG-4 Visual\nFormat profile                   : Advanced Simple@L5\nFormat settings, BVOP            : Yes\nFormat settings, QPel            : No\nFormat settings, GMC             : No warppoints\nFormat settings, Matrix          : Default (MPEG)\nMuxing mode                      : Packed bitstream\nCodec ID                         : XVID\nCodec ID/Hint                    : XviD\nDuration                         : 1h 35mn\nBit rate                         : 1 819 Kbps\nWidth                            : 720 pixels\nHeight                           : 304 pixels\nDisplay aspect ratio             : 2.35:1\nFrame rate                       : 25.000 fps\nColor space                      : YUV\nChroma subsampling               : 4:2:0\nBit depth                        : 8 bits\nScan type                        : Progressive\nBits/(Pixel*Frame)               : 0.332\nStream size                      : 1.22 GiB (93%)\nWriting library                  : XviD 61\n\nAudio\nID                               : 1\nFormat                           : MPEG Audio\nFormat version                   : Version 1\nFormat profile                   : Layer 3\nMode                             : Joint stereo\nMode extension                   : MS Stereo\nCodec ID                         : 55\nCodec ID/Hint                    : MP3\nDuration                         : 1h 35mn\nBit rate mode                    : Constant\nBit rate                         : 128 Kbps\nChannel(s)                       : 2 channels\nSampling rate                    : 44.1 KHz\nStream size                      : 87.8 MiB (7%)\nAlignment                        : Split accross interleaves\nInterleave, duration             : 40 ms (1.00 video frame)\nInterleave, preload duration     : 500 ms\nWriting library                  : LAME3.98.4\n\n\n\n &lt;a href=&quot;\nhttp://www.imdb.com/title/tt1591095/&quot; rel=&quot;nofollow&quot; target=&quot;_NEW&quot;&gt;\nhttp://www.imdb.com/title/tt1591095/&lt;/a&gt;\n\n\n\n\n\n\n\nUsers: 7.4/10 (4,237 votes) 118 reviews | Critics: 127 reviews Metascore: 52/100 (based on 30 reviews from Metacritic.com)\n\nA family looks to prevent evil spirits from trapping their comatose child in a realm called The Further.\nDirector:\nJames Wan\nWriter:\nLeigh Whannell\nStars:\nPatrick Wilson, Rose Byrne and Ty Simpkins \n\n\n\n\n\n\n\n &lt;a href=&quot;\nhttp://img199.imageshack.us/img199/6061/vlcsnap2011042312h12m03.png&quot; rel=&quot;nofollow&quot; target=&quot;_NEW&quot;&gt;\nhttp://img199.imageshack.us/img199/6061/vlcsnap2011042312h12m03.png&lt;/a&gt;\n &lt;a href=&quot;\nhttp://img859.imageshack.us/img859/7949/vlcsnap2011042312h12m21.png&quot; rel=&quot;nofollow&quot; target=&quot;_NEW&quot;&gt;\nhttp://img859.imageshack.us/img859/7949/vlcsnap2011042312h12m21.png&lt;/a&gt;\n &lt;a href=&quot;\nhttp://img839.imageshack.us/img839/8416/vlcsnap2011042312h11m58.png&quot; rel=&quot;nofollow&quot; target=&quot;_NEW&quot;&gt;\nhttp://img839.imageshack.us/img839/8416/vlcsnap2011042312h11m58.png&lt;/a&gt;\n\n\nVIDEO: .......... Astral.2010.D.DVD.ELEKTRI4KA ...............Thanks \n\nAUDIO: .......... IMAGiNE .............................................Thanks \n\n\nHonestly cant say done a great deal with this just a few filters slight saturation level and levels filter ...Nice work IMAGiNE \n\nEnjoy !\n\n\n\nGreetz to Imagine ,Flawl3ss,DiLLoN,BDK,NOiR,TOXiCiNK,THC,Ez,Rx,Boobyblue\n\n\n\n\n\n\n\n\n\n\n\n\n","torrent":{"xt":"urn:btih:05478b69e409cdf98202539394320119a0413ccc","amp;dn":"Insidious+2011+R5+LiNE+XViD+DTRG+-+SAFCuk009","amp;tr":["udp%3A%2F%2Ftracker.openbittorrent.com%3A80","udp%3A%2F%2Fopen.demonii.com%3A1337","udp%3A%2F%2Ftracker.coppersurfer.tk%3A6969","udp%3A%2F%2Fexodus.desync.com%3A6969"],"infoHash":"05478b69e409cdf98202539394320119a0413ccc","infoHashBuffer":{"type":"Buffer","data":[5,71,139,105,228,9,205,249,130,2,83,147,148,50,1,25,160,65,60,204]},"announce":[],"urlList":[]}}